<svg xmlns="http://www.w3.org/2000/svg" viewBox="0 0 128 48">
  <!-- Stock -->
  <path d="M0 26 L24 18 L24 32 L0 38 Z" fill="#5a3a1a"/>
  <path d="M2 27 L22 20 L22 30 L2 36 Z" fill="#4a2a0a"/>
  <!-- Cheek rest -->
  <rect x="8" y="18" width="12" height="6" rx="2" fill="#4a2a0a"/>
  <!-- Receiver -->
  <rect x="22" y="16" width="40" height="16" rx="2" fill="#444"/>
  <!-- Bolt -->
  <rect x="50" y="10" width="4" height="8" rx="1" fill="#555"/>
  <circle cx="52" cy="8" r="3" fill="#666"/>
  <!-- Scope mount -->
  <rect x="30" y="10" width="24" height="8" rx="1" fill="#333"/>
  <!-- Scope -->
  <rect x="28" y="0" width="28" height="12" rx="4" fill="#222"/>
  <ellipse cx="28" cy="6" rx="4" ry="5" fill="#1a1a2a"/>
  <ellipse cx="56" cy="6" rx="4" ry="5" fill="#1a1a2a"/>
  <circle cx="28" cy="6" r="2" fill="#4466aa" opacity="0.5"/>
  <!-- Barrel -->
  <rect x="60" y="20" width="60" height="6" fill="#333"/>
  <!-- Muzzle brake -->
  <rect x="116" y="18" width="10" height="10" rx="1" fill="#444"/>
  <path d="M118 18 L118 28 M122 18 L122 28" stroke="#333" stroke-width="1"/>
  <!-- Bipod -->
  <path d="M70 32 L64 46 M70 32 L76 46" stroke="#555" stroke-width="3"/>
  <ellipse cx="64" cy="46" rx="3" ry="2" fill="#444"/>
  <ellipse cx="76" cy="46" rx="3" ry="2" fill="#444"/>
  <!-- Magazine -->
  <rect x="42" y="32" width="12" height="12" rx="1" fill="#333"/>
  <!-- Trigger guard -->
  <path d="M34 32 Q30 38 34 42 L44 42 L44 32" fill="none" stroke="#333" stroke-width="2"/>
  <!-- Grip -->
  <rect x="28" y="32" width="8" height="14" rx="2" fill="#3a2a1a"/>
</svg>
