<svg xmlns="http://www.w3.org/2000/svg" viewBox="0 0 48 48">
  <!-- Body -->
  <ellipse cx="24" cy="32" rx="10" ry="14" fill="#5a7247"/>
  <!-- Torn clothes -->
  <path d="M14 28 L18 38 L14 42" fill="#4a3728"/>
  <path d="M34 28 L30 38 L34 42" fill="#4a3728"/>
  <!-- Head -->
  <circle cx="24" cy="14" r="11" fill="#7a9b5a"/>
  <!-- Creepy eyes -->
  <circle cx="20" cy="12" r="4" fill="#f5f5dc"/>
  <circle cx="28" cy="12" r="4" fill="#f5f5dc"/>
  <circle cx="20" cy="12" r="2" fill="#8b0000"/>
  <circle cx="28" cy="12" r="2" fill="#8b0000"/>
  <!-- Mouth with teeth -->
  <path d="M18 20 Q24 26 30 20" fill="#2a1a0a"/>
  <path d="M20 20 L21 23 L22 20" fill="#fff"/>
  <path d="M26 20 L27 23 L28 20" fill="#fff"/>
  <!-- Arms reaching forward -->
  <ellipse cx="8" cy="28" rx="5" ry="8" fill="#7a9b5a" transform="rotate(-20 8 28)"/>
  <ellipse cx="40" cy="28" rx="5" ry="8" fill="#7a9b5a" transform="rotate(20 40 28)"/>
  <!-- Wounds -->
  <ellipse cx="26" cy="8" rx="3" ry="2" fill="#5a3030"/>
  <ellipse cx="20" cy="34" rx="2" ry="3" fill="#5a3030"/>
</svg>
