<svg xmlns="http://www.w3.org/2000/svg" viewBox="0 0 72 72">
  <defs>
    <radialGradient id="zb_skin" cx="50%" cy="45%" r="50%">
      <stop offset="0%" stop-color="#4a5a3a"/>
      <stop offset="50%" stop-color="#3a4a2a"/>
      <stop offset="100%" stop-color="#2a3a1a"/>
    </radialGradient>
    <radialGradient id="zb_head" cx="50%" cy="40%" r="50%">
      <stop offset="0%" stop-color="#5a6a4a"/>
      <stop offset="50%" stop-color="#4a5a3a"/>
      <stop offset="100%" stop-color="#3a4a2a"/>
    </radialGradient>
    <radialGradient id="zb_tumor" cx="40%" cy="40%" r="50%">
      <stop offset="0%" stop-color="#7a5a5a"/>
      <stop offset="50%" stop-color="#5a3a3a"/>
      <stop offset="100%" stop-color="#4a2a2a"/>
    </radialGradient>
    <radialGradient id="zb_glow" cx="50%" cy="50%" r="50%">
      <stop offset="0%" stop-color="#ff2200"/>
      <stop offset="40%" stop-color="#cc0000"/>
      <stop offset="100%" stop-color="#880000"/>
    </radialGradient>
    <filter id="glow_filter">
      <feGaussianBlur stdDeviation="1.5" result="blur"/>
      <feMerge>
        <feMergeNode in="blur"/>
        <feMergeNode in="SourceGraphic"/>
      </feMerge>
    </filter>
    <radialGradient id="zb_eye_glow" cx="50%" cy="50%" r="50%">
      <stop offset="0%" stop-color="#ff4400" stop-opacity="0.8"/>
      <stop offset="100%" stop-color="#ff0000" stop-opacity="0"/>
    </radialGradient>
  </defs>

  <!-- Large shadow -->
  <ellipse cx="36" cy="40" rx="22" ry="24" fill="#00000035"/>

  <!-- Legs - massive, mutated -->
  <path d="M24 52 Q22 56 21 61 Q20 64 22 65" fill="none" stroke="#3a4a2a" stroke-width="7" stroke-linecap="round"/>
  <path d="M48 52 Q50 56 51 61 Q52 64 50 65" fill="none" stroke="#3a4a2a" stroke-width="7" stroke-linecap="round"/>
  <!-- Tumor on left leg -->
  <ellipse cx="22" cy="58" rx="3" ry="2.5" fill="url(#zb_tumor)"/>
  <ellipse cx="22" cy="58" rx="1.5" ry="1.2" fill="#5a3a3a" opacity="0.5"/>
  <!-- Torn remnants of clothing on legs -->
  <path d="M21 53 l-1 2 l1.5 0.5 l-0.8 1.5 l2 -0.3" fill="none" stroke="#2a2a20" stroke-width="0.6"/>
  <path d="M51 53 l1 2 l-1.5 0.5 l0.8 1.5 l-2 -0.3" fill="none" stroke="#2a2a20" stroke-width="0.6"/>
  <!-- Feet - clawed -->
  <ellipse cx="22" cy="65.5" rx="3.5" ry="2" fill="#3a4a2a"/>
  <line x1="19" y1="65" x2="17.5" y2="64" stroke="#3a4a2a" stroke-width="1" stroke-linecap="round"/>
  <line x1="20" y1="64.5" x2="18.5" y2="63" stroke="#3a4a2a" stroke-width="1" stroke-linecap="round"/>
  <line x1="22" y1="64" x2="21" y2="62.5" stroke="#3a4a2a" stroke-width="1" stroke-linecap="round"/>
  <ellipse cx="50" cy="65.5" rx="3.5" ry="2" fill="#3a4a2a"/>
  <line x1="53" y1="65" x2="54.5" y2="64" stroke="#3a4a2a" stroke-width="1" stroke-linecap="round"/>
  <line x1="52" y1="64.5" x2="53.5" y2="63" stroke="#3a4a2a" stroke-width="1" stroke-linecap="round"/>
  <line x1="50" y1="64" x2="51" y2="62.5" stroke="#3a4a2a" stroke-width="1" stroke-linecap="round"/>

  <!-- Massive torso - grotesquely wide -->
  <path d="M16 22 Q12 32 14 52 Q22 56 36 56 Q50 56 58 52 Q60 32 56 22 Z" fill="url(#zb_skin)"/>

  <!-- Exposed ribcage area -->
  <path d="M28 32 Q30 31 32 32" fill="none" stroke="#c0b8a0" stroke-width="0.8" opacity="0.5"/>
  <path d="M28 34 Q30 33 33 34" fill="none" stroke="#c0b8a0" stroke-width="0.8" opacity="0.5"/>
  <path d="M29 36 Q31 35 33 36" fill="none" stroke="#c0b8a0" stroke-width="0.8" opacity="0.5"/>
  <!-- Flesh around exposed ribs -->
  <path d="M27 30 Q27 37 28 38" fill="none" stroke="#5a2a2a" stroke-width="0.8"/>
  <path d="M34 30 Q34 37 33 38" fill="none" stroke="#5a2a2a" stroke-width="0.8"/>

  <!-- Large tumors on torso -->
  <ellipse cx="20" cy="35" rx="4" ry="3.5" fill="url(#zb_tumor)"/>
  <ellipse cx="20" cy="35" rx="2" ry="1.5" fill="#6a4a4a" opacity="0.4"/>
  <ellipse cx="50" cy="38" rx="3.5" ry="4" fill="url(#zb_tumor)"/>
  <ellipse cx="50" cy="38" rx="1.8" ry="2" fill="#6a4a4a" opacity="0.4"/>
  <ellipse cx="40" cy="48" rx="3" ry="2.5" fill="url(#zb_tumor)"/>
  <!-- Veins around tumors -->
  <path d="M17 33 Q15 30 14 28" fill="none" stroke="#4a2a3a" stroke-width="0.5" opacity="0.6"/>
  <path d="M23 33 Q25 30 26 28" fill="none" stroke="#4a2a3a" stroke-width="0.5" opacity="0.6"/>
  <path d="M18 37 Q16 40 15 43" fill="none" stroke="#4a2a3a" stroke-width="0.5" opacity="0.6"/>
  <path d="M47 36 Q45 33 44 30" fill="none" stroke="#4a2a3a" stroke-width="0.5" opacity="0.6"/>
  <path d="M53 37 Q55 40 56 43" fill="none" stroke="#4a2a3a" stroke-width="0.5" opacity="0.6"/>

  <!-- Blood splatters -->
  <ellipse cx="30" cy="42" rx="3" ry="2" fill="#8b0000" opacity="0.4"/>
  <ellipse cx="44" cy="30" rx="2" ry="2.5" fill="#8b0000" opacity="0.35"/>
  <circle cx="25" cy="48" r="1.5" fill="#6b0000" opacity="0.4"/>
  <circle cx="48" cy="46" r="1.8" fill="#6b0000" opacity="0.35"/>
  <!-- Blood drips -->
  <path d="M30 43 Q31 46 30.5 48" fill="none" stroke="#8b0000" stroke-width="0.5" opacity="0.5"/>
  <path d="M44 32 Q44.5 35 44 37" fill="none" stroke="#8b0000" stroke-width="0.5" opacity="0.5"/>

  <!-- Bone protrusion from right shoulder -->
  <path d="M54 24 Q58 20 62 17 Q63 16 62.5 15" fill="none" stroke="#d0c8b0" stroke-width="2.5" stroke-linecap="round"/>
  <path d="M62.5 15 L64 13 L61.5 14 Z" fill="#c0b8a0"/>
  <!-- Bone protrusion from left shoulder -->
  <path d="M18 24 Q14 21 11 18" fill="none" stroke="#d0c8b0" stroke-width="2" stroke-linecap="round"/>
  <path d="M11 18 L9.5 16 L10.5 19 Z" fill="#c0b8a0"/>
  <!-- Bone protrusion from back -->
  <path d="M36 50 Q36 53 37 56" fill="none" stroke="#c0b8a0" stroke-width="1.5" stroke-linecap="round"/>
  <path d="M33 48 Q32 51 31 53" fill="none" stroke="#c0b8a0" stroke-width="1.2" stroke-linecap="round"/>
  <path d="M39 49 Q40 52 41 54" fill="none" stroke="#c0b8a0" stroke-width="1.2" stroke-linecap="round"/>

  <!-- Left arm - grotesquely large -->
  <path d="M16 24 Q8 20 4 14 Q2 10 4 6" fill="none" stroke="#3a4a2a" stroke-width="7" stroke-linecap="round"/>
  <!-- Arm tumor -->
  <ellipse cx="8" cy="18" rx="3" ry="2.5" fill="url(#zb_tumor)" transform="rotate(-20 8 18)"/>
  <!-- Left hand - massive claws -->
  <circle cx="4.5" cy="7" r="4" fill="#4a5a3a"/>
  <path d="M2 5 Q0 2 -0.5 0" fill="none" stroke="#3a4a2a" stroke-width="1.5" stroke-linecap="round"/>
  <path d="M4 4 Q3 1 2.5 -1" fill="none" stroke="#3a4a2a" stroke-width="1.5" stroke-linecap="round"/>
  <path d="M6.5 4.5 Q6.5 1.5 7 -0.5" fill="none" stroke="#3a4a2a" stroke-width="1.5" stroke-linecap="round"/>
  <path d="M8.5 6 Q9.5 3.5 10 1.5" fill="none" stroke="#3a4a2a" stroke-width="1.3" stroke-linecap="round"/>
  <!-- Claw tips -->
  <circle cx="-0.3" cy="-0.3" r="0.6" fill="#2a2a1a"/>
  <circle cx="2.5" cy="-1.3" r="0.6" fill="#2a2a1a"/>
  <circle cx="7" cy="-0.8" r="0.6" fill="#2a2a1a"/>
  <circle cx="10" cy="1.2" r="0.6" fill="#2a2a1a"/>
  <!-- Blood on claws -->
  <path d="M0 1 Q-0.5 2 0 2.5" fill="none" stroke="#8b0000" stroke-width="0.6"/>
  <path d="M3 0 Q2.5 1.5 3 2" fill="none" stroke="#8b0000" stroke-width="0.6"/>
  <path d="M7 0 Q6.5 1 7 1.5" fill="none" stroke="#8b0000" stroke-width="0.6"/>

  <!-- Right arm - asymmetrically mutated, even larger -->
  <path d="M56 24 Q64 20 68 14 Q70 10 68 6" fill="none" stroke="#3a4a2a" stroke-width="8" stroke-linecap="round"/>
  <!-- Tumor cluster on right arm -->
  <ellipse cx="64" cy="17" rx="3.5" ry="3" fill="url(#zb_tumor)" transform="rotate(25 64 17)"/>
  <ellipse cx="62" cy="14" rx="2" ry="1.8" fill="url(#zb_tumor)"/>
  <!-- Right hand - massive -->
  <circle cx="67.5" cy="7" r="4.5" fill="#4a5a3a"/>
  <path d="M65 4.5 Q63.5 1.5 63 -0.5" fill="none" stroke="#3a4a2a" stroke-width="1.5" stroke-linecap="round"/>
  <path d="M67 3.5 Q66.5 0.5 66 -1.5" fill="none" stroke="#3a4a2a" stroke-width="1.5" stroke-linecap="round"/>
  <path d="M69.5 4 Q70 1 70.5 -1" fill="none" stroke="#3a4a2a" stroke-width="1.5" stroke-linecap="round"/>
  <path d="M71.5 5.5 Q72.5 3 73 1" fill="none" stroke="#3a4a2a" stroke-width="1.3" stroke-linecap="round"/>
  <circle cx="63" cy="-0.8" r="0.6" fill="#2a2a1a"/>
  <circle cx="66" cy="-1.8" r="0.6" fill="#2a2a1a"/>
  <circle cx="70.5" cy="-1.3" r="0.6" fill="#2a2a1a"/>
  <circle cx="73" cy="0.7" r="0.6" fill="#2a2a1a"/>
  <!-- Blood on right claws -->
  <path d="M63.5 0 Q63 1.5 63.5 2" fill="none" stroke="#8b0000" stroke-width="0.6"/>
  <path d="M66.5 -0.5 Q66 1 66.5 1.5" fill="none" stroke="#8b0000" stroke-width="0.6"/>

  <!-- Head - large, deformed -->
  <ellipse cx="36" cy="16" rx="9" ry="10" fill="url(#zb_head)"/>
  <!-- Skull deformation / asymmetry -->
  <ellipse cx="32" cy="13" rx="3" ry="2" fill="#4a5a3a" opacity="0.5"/>

  <!-- Large tumor on head -->
  <ellipse cx="42" cy="11" rx="4" ry="3.5" fill="url(#zb_tumor)"/>
  <ellipse cx="42" cy="11" rx="2" ry="1.5" fill="#6a4a4a" opacity="0.4"/>
  <!-- Smaller growths -->
  <circle cx="30" cy="9" r="2" fill="url(#zb_tumor)" opacity="0.8"/>
  <circle cx="38" cy="8" r="1.5" fill="url(#zb_tumor)" opacity="0.7"/>

  <!-- Bone protrusion from skull -->
  <path d="M34 7 Q33 4 34 2" fill="none" stroke="#c0b8a0" stroke-width="1.5" stroke-linecap="round"/>
  <path d="M34 2 L33 0.5 L35 1 Z" fill="#c0b8a0"/>
  <!-- Another bone spike -->
  <path d="M28 10 Q26 7 25 5" fill="none" stroke="#c0b8a0" stroke-width="1.2" stroke-linecap="round"/>
  <path d="M25 5 L24 3.5 L26 4 Z" fill="#b0a890"/>

  <!-- Glowing red eyes with filter -->
  <circle cx="32" cy="15" r="3" fill="url(#zb_eye_glow)" filter="url(#glow_filter)"/>
  <circle cx="40" cy="15" r="3" fill="url(#zb_eye_glow)" filter="url(#glow_filter)"/>
  <ellipse cx="32" cy="15" rx="2" ry="1.5" fill="url(#zb_glow)"/>
  <circle cx="32" cy="15" r="0.8" fill="#ffaa00"/>
  <ellipse cx="40" cy="15" rx="2" ry="1.5" fill="url(#zb_glow)"/>
  <circle cx="40" cy="15" r="0.8" fill="#ffaa00"/>
  <!-- Eye glow ambient -->
  <circle cx="32" cy="15" r="4.5" fill="#ff000015"/>
  <circle cx="40" cy="15" r="4.5" fill="#ff000015"/>

  <!-- Heavy brow ridge -->
  <path d="M28 13 Q32 11.5 36 12 Q40 11.5 44 13" fill="#3a4a2a" opacity="0.7"/>

  <!-- Nose - barely there, rotted -->
  <path d="M35 17 Q36 18.5 37 17" fill="#3a4a2a"/>
  <circle cx="35.3" cy="17.5" r="0.5" fill="#2a3a1a"/>
  <circle cx="36.7" cy="17.5" r="0.5" fill="#2a3a1a"/>

  <!-- Mouth - massive, gaping -->
  <path d="M30 20 Q33 24 36 24 Q39 24 42 20" fill="#1a0a0a"/>
  <!-- Jagged teeth -->
  <path d="M31 20 L32 22 L33 20.5 L34.5 22.5 L36 20.5 L37.5 22.5 L39 20.5 L40 22 L41 20" fill="none" stroke="#c0b890" stroke-width="0.6"/>
  <!-- Bottom teeth -->
  <path d="M33 23.5 L34 22 L35.5 23.5 L37 22 L38.5 23.5 L39.5 22" fill="none" stroke="#b0a880" stroke-width="0.5"/>
  <!-- Blood from mouth -->
  <path d="M34 24 Q34.5 26 34 28" fill="none" stroke="#8b0000" stroke-width="0.8" opacity="0.7"/>
  <path d="M38 24 Q38.5 26.5 38 28.5" fill="none" stroke="#8b0000" stroke-width="0.6" opacity="0.6"/>
  <ellipse cx="36" cy="25" rx="2" ry="1" fill="#8b0000" opacity="0.4"/>

  <!-- Pulsating veins on head -->
  <path d="M28 12 Q26 10 24 11" fill="none" stroke="#4a2a3a" stroke-width="0.6" opacity="0.6"/>
  <path d="M44 12 Q46 10 48 11" fill="none" stroke="#4a2a3a" stroke-width="0.6" opacity="0.6"/>
  <path d="M30 8 Q28 6 26 7" fill="none" stroke="#4a2a3a" stroke-width="0.5" opacity="0.5"/>
  <path d="M40 9 Q42 7 44 8" fill="none" stroke="#4a2a3a" stroke-width="0.5" opacity="0.5"/>

  <!-- Neck area - thick, scarred -->
  <path d="M28 24 Q36 22 44 24" fill="none" stroke="#5a2a2a" stroke-width="0.6" opacity="0.5"/>
  <path d="M30 25 Q36 23.5 42 25" fill="none" stroke="#5a2a2a" stroke-width="0.5" opacity="0.4"/>
</svg>